<svg xmlns="http://www.w3.org/2000/svg" xmlns:xlink="http://www.w3.org/1999/xlink" width="500" zoomAndPan="magnify" viewBox="0 0 375 374.999991" height="500" preserveAspectRatio="xMidYMid meet" version="1.0"><defs><g/><clipPath id="2d82b189d9"><path d="M 37.5 37.5 L 335 37.5 L 335 333 L 37.5 333 Z M 37.5 37.5 " clip-rule="nonzero"/></clipPath><clipPath id="be68ef72da"><path d="M 40 42 L 337.5 42 L 337.5 337.5 L 40 337.5 Z M 40 42 " clip-rule="nonzero"/></clipPath></defs><rect x="-37.5" width="450" fill="#ffffff" y="-37.499999" height="449.999989" fill-opacity="1"/><rect x="-37.5" width="450" fill="#ffffff" y="-37.499999" height="449.999989" fill-opacity="1"/><path fill="#358e9d" d="M 329.128906 187.058594 C 329.066406 217.191406 319.019531 247.0625 301.246094 271.335938 C 284.3125 294.515625 260.488281 312.414062 233.507812 322.136719 C 205.496094 332.246094 174.460938 333.402344 145.804688 325.546875 C 118.054688 317.886719 92.875 301.855469 74.140625 279.964844 C 55.207031 257.816406 43.230469 230.132812 40.203125 201.160156 C 36.984375 170.191406 45.035156 138.320312 61.582031 112.050781 C 76.84375 87.777344 99.316406 68.335938 125.523438 56.679688 C 152.824219 44.578125 183.734375 41.230469 213.03125 47.152344 C 241.234375 52.816406 267.441406 67.109375 287.597656 87.648438 C 307.878906 108.316406 321.722656 134.90625 326.875 163.429688 C 328.355469 171.542969 329.128906 179.78125 329.128906 188.023438 C 329.128906 190.214844 329.195312 188.089844 329.128906 187.058594 C 329.066406 157.507812 320.695312 128.660156 303.953125 104.195312 C 287.082031 79.601562 262.675781 60.414062 234.730469 50.050781 C 205.753906 39.296875 173.429688 38.136719 143.679688 46.828125 C 114.964844 55.199219 89.207031 72.582031 70.597656 96.082031 C 51.921875 119.648438 41.042969 148.75 39.558594 178.753906 C 38.144531 207.53125 44.132812 236.117188 58.554688 261.164062 C 73.300781 286.851562 95.96875 307.777344 122.820312 320.398438 C 150.894531 333.597656 183.089844 337.332031 213.480469 331.085938 C 242.78125 325.097656 269.824219 309.839844 290.238281 287.949219 C 310.777344 265.992188 324.105469 237.726562 327.96875 207.917969 C 328.808594 201.289062 329.195312 194.65625 329.195312 187.960938 C 329.195312 186.929688 329.128906 184.804688 329.128906 187.058594 Z M 329.128906 187.058594 " fill-opacity="1" fill-rule="nonzero"/><path fill="#358e9d" d="M 224.042969 326.898438 C 195.257812 333.597656 164.867188 331.535156 137.371094 320.65625 C 110.648438 310.03125 87.339844 291.488281 71.113281 267.730469 C 53.792969 242.429688 44.195312 210.816406 46.0625 180.039062 C 47.867188 151.003906 58.683594 122.804688 76.585938 99.882812 C 113.351562 52.882812 177.292969 32.988281 234.214844 50.949219 C 261.324219 59.511719 285.664062 76.058594 303.5 98.207031 C 322.496094 121.707031 333.699219 151.066406 335.375 181.199219 C 338.722656 240.949219 299.960938 298.183594 245.035156 320.269531 C 238.207031 322.972656 231.191406 325.160156 224.042969 326.898438 C 223.785156 326.964844 224.234375 330.054688 224.042969 330.121094 C 253.792969 322.972656 280.769531 306.683594 300.734375 283.441406 C 320.242188 260.714844 332.347656 232 335.054688 202.1875 C 337.628906 173.730469 332.542969 144.757812 319.40625 119.328125 C 305.625 92.605469 283.410156 70.652344 256.625 56.9375 C 229.707031 43.09375 198.671875 38.074219 168.730469 42.710938 C 138.335938 47.410156 109.8125 61.832031 88.046875 83.65625 C 66.992188 104.839844 52.761719 132.460938 47.800781 161.949219 C 43.101562 189.890625 46.257812 219.378906 57.269531 245.519531 C 68.921875 273.203125 89.335938 296.832031 114.964844 312.605469 C 140.71875 328.382812 171.242188 335.914062 201.375 333.597656 C 209.039062 333.015625 216.574219 331.792969 224.042969 330.054688 C 224.300781 330.054688 223.847656 326.964844 224.042969 326.898438 Z M 224.042969 326.898438 " fill-opacity="1" fill-rule="nonzero"/><g clip-path="url(#2d82b189d9)"><path fill="#358e9d" d="M 256.238281 313.703125 C 229.257812 328.1875 197.769531 333.660156 167.507812 329.476562 C 138.660156 325.484375 111.164062 312.929688 89.464844 293.484375 C 66.925781 273.398438 50.894531 246.226562 44.132812 216.804688 C 37.5625 188.347656 39.753906 158.085938 50.25 130.851562 C 60.875 103.292969 79.871094 79.214844 104.273438 62.539062 C 130.351562 44.707031 162.742188 36.527344 194.164062 38.652344 C 223.207031 40.585938 251.410156 51.207031 274.460938 68.976562 C 298.480469 87.519531 316.316406 113.53125 325.203125 142.503906 C 333.765625 170.445312 333.636719 200.707031 325.074219 228.585938 C 316.445312 256.65625 299.316406 281.894531 276.328125 300.179688 C 269.824219 305.394531 262.804688 310.097656 255.464844 314.089844 C 253.46875 315.183594 255.335938 314.214844 256.238281 313.703125 C 282.574219 299.410156 304.273438 277.96875 318.054688 251.25 C 331.898438 224.335938 337.242188 193.304688 332.992188 163.300781 C 328.613281 132.203125 314.0625 102.84375 291.976562 80.503906 C 270.660156 58.871094 242.652344 44.320312 212.773438 39.039062 C 182.765625 33.761719 151.472656 38.074219 123.976562 51.207031 C 97.640625 63.828125 74.976562 82.949219 59.585938 107.867188 C 43.746094 133.492188 36.019531 163.816406 37.757812 193.820312 C 39.558594 225.238281 51.730469 255.757812 71.949219 279.898438 C 91.460938 303.144531 118.117188 319.945312 147.480469 327.609375 C 176.972656 335.335938 208.652344 333.597656 237.113281 322.652344 C 243.425781 320.203125 249.542969 317.308594 255.53125 314.089844 C 256.367188 313.703125 258.296875 312.605469 256.238281 313.703125 Z M 256.238281 313.703125 " fill-opacity="1" fill-rule="nonzero"/></g><g clip-path="url(#be68ef72da)"><path fill="#358e9d" d="M 80.707031 287.367188 C 60.808594 264.898438 48.058594 236.828125 44.519531 207.015625 C 41.105469 178.042969 46.386719 148.300781 59.78125 122.351562 C 74.011719 94.667969 97.640625 70.84375 125.972656 57.710938 C 152.761719 45.285156 183.152344 41.355469 212.257812 46.25 C 271.949219 56.359375 320.566406 103.808594 331.960938 163.300781 C 337.371094 191.628906 334.34375 221.375 323.203125 247.964844 C 311.421875 276.230469 290.621094 300.375 264.542969 316.46875 C 212.839844 348.277344 143.039062 341.257812 96.804688 302.949219 C 91.074219 298.121094 85.730469 292.90625 80.707031 287.367188 C 80.511719 287.175781 78.003906 289.105469 77.808594 288.914062 C 98.542969 312.027344 126.101562 328.253906 156.496094 334.820312 C 186.179688 341.257812 217.667969 338.230469 245.613281 326.257812 C 272.207031 314.796875 295.644531 296.316406 312 272.367188 C 329.195312 247.191406 338.144531 216.738281 337.4375 186.285156 C 336.726562 155.574219 326.296875 125.441406 307.6875 100.976562 C 288.820312 76.125 262.226562 57.582031 232.21875 48.695312 C 203.242188 40.070312 171.628906 40.648438 142.972656 50.433594 C 115.734375 59.769531 90.878906 76.769531 72.851562 99.238281 C 53.792969 122.996094 42.523438 152.613281 40.847656 183.066406 C 39.175781 213.714844 47.222656 244.488281 63.773438 270.308594 C 67.957031 276.875 72.722656 283.054688 77.875 288.847656 C 78.066406 289.105469 80.578125 287.175781 80.707031 287.367188 Z M 80.707031 287.367188 " fill-opacity="1" fill-rule="nonzero"/></g><g fill="#1d4e56" fill-opacity="1"><g transform="translate(146.383309, 191.359221)"><g><path d="M 11.878906 -3.480469 C 8.347656 -3.53125 5.152344 -1.621094 6.726562 -6.773438 C 7.011719 -7.917969 7.441406 -9.0625 7.726562 -10.160156 L 9.636719 -17.933594 C 9.96875 -19.367188 11.304688 -24.660156 11.496094 -26.042969 C 11.589844 -26.519531 11.640625 -27 11.542969 -27.425781 C 11.398438 -28.285156 10.921875 -28.761719 10.015625 -28.859375 C 9.492188 -28.859375 8.441406 -27.378906 7.917969 -27.378906 C 7.488281 -27.378906 7.394531 -27.285156 7.105469 -26.808594 L 6.34375 -24.945312 C 5.484375 -22.464844 4.246094 -17.554688 3.386719 -15.074219 C 2.957031 -13.785156 1.71875 -9.683594 1.335938 -8.394531 C 0.8125 -6.726562 0.429688 -5.054688 -0.046875 -3.433594 C -0.859375 -0.09375 -1.097656 0 -2.097656 0.8125 C -2.480469 0.859375 -2.625 1.191406 -2.574219 1.429688 C -2.480469 1.667969 -2.574219 2.003906 -2.625 2.289062 C -2.574219 2.574219 -2.625 2.863281 -2.625 3.101562 C -2.574219 3.433594 -2.433594 3.71875 -2.386719 4.007812 C -2.289062 4.246094 -2.242188 4.484375 -2.050781 4.625 C -1.765625 4.867188 -1.382812 5.105469 -1.097656 5.292969 C -1.050781 5.34375 -1 5.34375 -0.953125 5.34375 C -0.429688 5.199219 0.09375 5.054688 0.574219 4.867188 C 1.097656 4.625 1.574219 4.339844 2.097656 4.054688 C 2.863281 3.578125 1.574219 4.148438 2.386719 3.71875 C 3.292969 3.148438 4.246094 2.574219 5.054688 1.765625 C 5.152344 1.621094 5.34375 1.527344 5.484375 1.429688 C 5.820312 1.238281 6.25 1.097656 6.582031 0.90625 C 7.535156 0.476562 8.441406 0.09375 9.398438 -0.382812 C 10.304688 -0.859375 11.160156 -1.144531 12.066406 -1.238281 C 12.402344 -1.238281 12.734375 -1.289062 13.164062 -1.480469 C 13.738281 -1.71875 14.261719 -1.8125 14.785156 -1.765625 C 14.835938 -1.765625 14.976562 -1.8125 14.976562 -1.859375 C 15.3125 -2.289062 15.644531 -2.335938 15.980469 -2.335938 C 16.074219 -2.335938 16.121094 -2.386719 16.265625 -2.433594 C 16.171875 -2.527344 16.121094 -2.671875 16.027344 -2.671875 C 15.503906 -2.910156 14.976562 -3.195312 14.308594 -3.339844 C 13.546875 -3.433594 12.734375 -3.480469 11.878906 -3.480469 Z M 11.878906 -3.480469 "/></g></g></g><g fill="#1d4e56" fill-opacity="1"><g transform="translate(161.884308, 191.359221)"><g><path d="M -0.574219 -8.492188 C -0.523438 -8.347656 -0.574219 -8.203125 -0.523438 -8.0625 C -0.523438 -6.390625 -0.285156 -4.722656 0.382812 -3.292969 C 1.144531 -1.527344 2.289062 -0.238281 3.910156 0.8125 C 4.53125 1.238281 5.292969 1.527344 6.105469 1.574219 C 6.441406 1.574219 6.773438 1.667969 7.105469 1.71875 C 7.535156 1.859375 8.011719 1.859375 8.539062 1.574219 C 8.824219 1.480469 9.109375 1.429688 9.398438 1.289062 C 10.636719 1 11.6875 0.332031 12.496094 -0.476562 C 13.402344 -1.335938 14.121094 -2.148438 14.929688 -2.957031 C 15.074219 -3.195312 15.359375 -3.480469 15.40625 -3.71875 C 15.980469 -4.675781 16.695312 -5.582031 16.933594 -6.628906 C 17.21875 -7.441406 17.648438 -8.203125 17.792969 -9.015625 C 18.125 -10.253906 18.601562 -11.542969 18.699219 -12.832031 C 18.746094 -13.878906 19.128906 -14.976562 19.269531 -16.074219 C 19.269531 -16.597656 19.320312 -17.125 19.320312 -17.648438 C 19.414062 -17.792969 19.367188 -18.078125 19.460938 -18.222656 C 19.890625 -19.078125 20.175781 -20.128906 20.273438 -21.132812 C 20.320312 -22.417969 20.273438 -23.707031 19.890625 -24.851562 C 19.558594 -26.042969 19.222656 -27.1875 18.554688 -28.046875 C 17.984375 -28.761719 17.410156 -29.335938 16.789062 -29.957031 C 16.410156 -30.335938 15.789062 -30.527344 15.074219 -30.574219 C 13.5 -30.527344 11.828125 -30.242188 10.398438 -29.144531 C 9.875 -28.714844 9.398438 -28.382812 8.871094 -28 C 8.730469 -27.761719 8.492188 -27.617188 8.15625 -27.761719 C 7.585938 -27.808594 7.011719 -27.761719 6.488281 -27.238281 C 5.820312 -26.472656 5.199219 -25.664062 4.816406 -24.804688 L 3.671875 -22.515625 C 3.386719 -22.132812 3.148438 -21.511719 2.957031 -21.035156 L 0.523438 -14.738281 C -0.238281 -12.640625 -0.761719 -10.589844 -0.574219 -8.492188 Z M 3.960938 -14.070312 C 4.914062 -13.878906 5.675781 -13.832031 6.34375 -13.453125 C 6.628906 -13.261719 7.011719 -13.355469 7.394531 -13.355469 C 7.632812 -13.355469 7.917969 -13.5 7.917969 -13.785156 C 8.347656 -14.882812 8.871094 -15.882812 9.347656 -17.027344 C 9.347656 -17.171875 9.398438 -17.265625 9.539062 -17.363281 C 9.828125 -17.984375 10.066406 -18.554688 10.253906 -19.175781 C 10.492188 -19.84375 10.921875 -20.320312 11.257812 -20.894531 C 11.78125 -21.703125 12.210938 -22.515625 12.734375 -23.324219 C 12.925781 -23.613281 13.164062 -23.800781 13.355469 -23.851562 C 13.691406 -24.089844 14.023438 -24.136719 14.308594 -24.28125 C 14.976562 -24.46875 15.503906 -24.28125 15.882812 -23.851562 C 16.410156 -23.324219 16.597656 -22.753906 16.550781 -21.988281 C 16.457031 -20.175781 16.21875 -18.171875 15.933594 -16.410156 C 15.40625 -13.59375 14.5 -10.875 13.164062 -8.394531 C 11.972656 -6.152344 10.304688 -4.292969 8.492188 -2.671875 C 7.964844 -2.195312 7.296875 -1.957031 6.679688 -1.667969 C 6.390625 -1.480469 6.011719 -1.574219 5.722656 -1.765625 C 5.007812 -2.242188 4.769531 -2.910156 4.625 -3.769531 C 4.4375 -5.007812 4.148438 -6.25 3.816406 -7.585938 C 3.769531 -8.347656 3.53125 -9.0625 3.386719 -9.875 C 3.386719 -10.398438 3.53125 -10.875 3.578125 -11.449219 C 3.625 -11.972656 3.671875 -12.59375 3.863281 -13.214844 C 3.863281 -13.453125 3.863281 -13.738281 3.960938 -14.070312 Z M 3.960938 -14.070312 "/></g></g></g><g fill="#1d4e56" fill-opacity="1"><g transform="translate(184.205755, 191.359221)"><g><path d="M 5.390625 -23.660156 C 4.914062 -23.230469 4.53125 -22.65625 4.101562 -22.085938 C 4.246094 -22.085938 4.292969 -22.085938 4.386719 -22.039062 C 4.199219 -21.800781 4.101562 -21.558594 3.910156 -21.417969 C 3.71875 -21.226562 3.625 -20.796875 3.242188 -20.84375 C 3.054688 -20.511719 2.433594 -20.320312 2.625 -19.746094 C 2.625 -19.699219 2.527344 -19.507812 2.480469 -19.414062 C 2.097656 -18.699219 1.621094 -17.933594 1.191406 -17.265625 C 0.621094 -16.410156 0.144531 -15.550781 -0.382812 -14.644531 C -0.667969 -14.167969 -1 -13.691406 -1.238281 -13.214844 C -1.480469 -12.6875 -1.667969 -12.066406 -1.90625 -11.542969 C -2.480469 -10.304688 -3.054688 -9.0625 -3.292969 -7.679688 C -3.386719 -7.679688 -3.480469 -7.679688 -3.625 -7.585938 C -3.480469 -7.488281 -3.339844 -7.488281 -3.195312 -7.441406 C -3.101562 -7.441406 -3.003906 -7.394531 -2.910156 -7.296875 C -2.765625 -6.917969 -2.480469 -6.488281 -2.289062 -6.105469 C -2.148438 -6.152344 -2.003906 -6.199219 -1.957031 -6.199219 L -1.238281 -3.578125 C -1.527344 -3.671875 -1.765625 -3.769531 -2.003906 -3.816406 C -1.859375 -3.671875 -1.8125 -3.53125 -1.71875 -3.386719 C -1.667969 -3.339844 -1.621094 -3.292969 -1.574219 -3.292969 C -1.238281 -3.242188 -1.238281 -3.242188 -1.382812 -2.863281 C -1.480469 -2.863281 -1.527344 -2.863281 -1.621094 -2.910156 C -1.527344 -2.765625 -1.382812 -2.765625 -1.238281 -2.71875 C -1.144531 -2.671875 -1.050781 -2.574219 -1.050781 -2.574219 C -1.144531 -2.242188 -0.859375 -2.148438 -0.621094 -2.050781 C 0.8125 -1.144531 2.242188 -0.238281 3.863281 0.476562 C 4.578125 0.8125 5.390625 0.90625 6.152344 0.574219 C 6.679688 0.429688 7.15625 0.09375 7.679688 -0.09375 C 8.15625 -0.285156 8.585938 -0.621094 9.015625 -1 C 9.539062 -1.429688 10.113281 -1.71875 10.492188 -2.335938 C 10.683594 -2.527344 10.921875 -2.765625 11.210938 -2.765625 C 11.257812 -2.433594 11.304688 -2.148438 11.257812 -1.90625 C 11.210938 -1.429688 11.304688 -1.050781 11.542969 -0.714844 C 11.398438 -1.335938 11.398438 -2.097656 11.6875 -2.527344 L 11.925781 -0.667969 L 11.589844 -0.667969 C 11.734375 -0.476562 11.925781 -0.382812 12.019531 -0.285156 C 12.6875 0.429688 13.453125 0.761719 14.261719 0.90625 C 14.453125 0.667969 14.546875 0.382812 14.597656 0.382812 C 14.882812 0.382812 14.929688 0.144531 14.976562 -0.046875 C 14.976562 -0.09375 15.074219 -0.238281 15.167969 -0.285156 C 15.214844 -0.09375 15.265625 0 15.359375 0.144531 L 15.265625 -2.242188 C 15.265625 -2.335938 15.265625 -2.386719 15.214844 -2.433594 C 15.027344 -2.957031 15.214844 -3.53125 15.265625 -4.054688 C 15.3125 -4.625 15.503906 -5.246094 15.644531 -5.867188 C 15.691406 -5.960938 15.691406 -6.058594 15.742188 -6.105469 C 15.882812 -6.535156 16.074219 -6.964844 16.3125 -7.394531 C 16.359375 -7.535156 16.503906 -7.773438 16.648438 -7.824219 C 17.027344 -7.917969 17.410156 -8.347656 17.886719 -8.253906 C 17.933594 -8.203125 18.03125 -8.253906 18.078125 -8.300781 C 18.316406 -8.539062 18.460938 -8.539062 18.699219 -8.539062 L 19.746094 -8.632812 C 19.84375 -8.679688 19.9375 -8.777344 20.082031 -8.824219 L 19.652344 -9.207031 C 19.984375 -9.445312 20.320312 -9.253906 20.558594 -9.730469 C 20.128906 -10.066406 20.75 -10.304688 20.75 -10.683594 L 20.414062 -11.113281 C 20.082031 -11.449219 19.507812 -11.6875 19.269531 -12.164062 C 19.03125 -12.640625 18.746094 -12.546875 18.363281 -12.449219 C 18.222656 -12.402344 18.03125 -12.402344 17.886719 -12.402344 L 16.886719 -12.304688 C 17.171875 -12.117188 17.507812 -12.496094 17.601562 -12.066406 C 17.171875 -12.066406 16.789062 -12.019531 16.359375 -12.066406 C 15.121094 -12.066406 13.785156 -12.117188 12.59375 -12.164062 C 12.164062 -12.164062 11.78125 -12.117188 11.496094 -12.304688 C 11.304688 -12.402344 11.113281 -12.402344 10.921875 -12.402344 C 10.589844 -12.355469 10.636719 -12.402344 10.207031 -12.6875 C 9.921875 -12.878906 9.492188 -13.070312 9.160156 -13.214844 C 9.109375 -13.214844 9.0625 -13.164062 8.96875 -13.164062 C 8.96875 -12.972656 8.917969 -12.832031 8.917969 -12.6875 C 8.777344 -12.640625 8.679688 -12.546875 8.539062 -12.449219 L 8.96875 -11.398438 C 8.871094 -11.398438 8.730469 -11.304688 8.539062 -11.304688 L 8.871094 -10.160156 L 9.160156 -10.160156 C 9.253906 -9.636719 9.585938 -9.253906 10.066406 -9.207031 C 10.253906 -9.207031 10.445312 -9.160156 10.589844 -8.96875 L 10.398438 -8.679688 C 10.828125 -8.632812 11.160156 -8.585938 11.542969 -8.492188 C 11.351562 -8.15625 10.972656 -8.011719 10.875 -7.585938 L 11.449219 -7.917969 C 11.589844 -7.679688 11.449219 -7.488281 11.257812 -7.347656 L 10.589844 -6.628906 C 10.351562 -6.390625 10.160156 -6.152344 9.96875 -5.867188 C 10.304688 -6.199219 10.683594 -6.535156 11.019531 -6.917969 C 11.113281 -6.964844 11.210938 -7.011719 11.304688 -7.011719 C 10.445312 -5.960938 9.585938 -4.960938 8.539062 -4.148438 C 8.679688 -4.484375 8.917969 -4.722656 9.109375 -4.867188 C 9.445312 -5.199219 9.828125 -5.4375 9.96875 -5.867188 C 9.875 -5.820312 9.777344 -5.773438 9.683594 -5.675781 L 7.011719 -3.101562 C 6.679688 -2.863281 6.390625 -2.574219 6.105469 -2.386719 L 5.773438 -2.289062 L 5.773438 -2.386719 C 5.960938 -2.574219 6.105469 -2.863281 6.296875 -3.101562 C 6.296875 -3.148438 6.25 -3.148438 6.25 -3.195312 C 5.914062 -2.910156 5.628906 -2.71875 5.34375 -2.433594 C 5.007812 -2.148438 4.625 -1.957031 4.246094 -1.90625 L 4.101562 -2.148438 C 4.007812 -2.097656 3.910156 -1.957031 3.863281 -2.003906 C 3.53125 -2.050781 3.242188 -2.289062 2.957031 -2.574219 C 3.148438 -2.71875 3.242188 -2.765625 3.386719 -2.8125 C 2.957031 -3.003906 2.574219 -3.242188 2.242188 -3.480469 C 2.050781 -3.625 1.90625 -3.910156 1.8125 -4.199219 C 1.621094 -5.199219 1.71875 -6.152344 1.957031 -7.25 L 2.574219 -9.398438 L 3.386719 -11.542969 C 3.960938 -13.164062 4.816406 -14.738281 5.390625 -16.410156 L 5.914062 -17.746094 C 6.105469 -18.222656 6.199219 -18.746094 6.488281 -19.128906 C 7.058594 -20.128906 7.726562 -21.035156 8.394531 -22.039062 C 8.539062 -22.277344 8.777344 -22.515625 8.871094 -22.800781 C 9.0625 -23.230469 9.347656 -23.613281 9.683594 -23.945312 C 11.734375 -25.996094 14.929688 -26.570312 15.074219 -23.5625 C 14.976562 -23.230469 14.976562 -22.894531 14.929688 -22.5625 L 14.5 -19.890625 C 14.359375 -18.890625 14.167969 -17.839844 13.976562 -16.839844 C 13.878906 -16.21875 14.121094 -15.882812 14.597656 -15.742188 C 15.167969 -15.453125 15.742188 -15.265625 16.359375 -15.121094 C 16.789062 -14.929688 17.171875 -14.929688 17.601562 -15.265625 C 18.078125 -15.644531 18.554688 -15.980469 18.984375 -16.359375 C 19.175781 -16.550781 19.414062 -16.839844 19.507812 -17.078125 C 19.796875 -17.746094 20.128906 -18.363281 20.320312 -19.078125 C 20.605469 -20.035156 20.894531 -21.082031 20.796875 -22.132812 C 20.75 -22.65625 20.703125 -23.183594 20.703125 -23.660156 C 20.75 -24.183594 20.75 -24.707031 20.320312 -24.945312 L 20.175781 -25.136719 C 19.9375 -25.757812 19.507812 -26.140625 19.078125 -26.519531 C 18.414062 -27.238281 17.601562 -27.761719 16.886719 -28.332031 C 16.742188 -28.523438 16.550781 -28.667969 16.3125 -28.761719 C 15.503906 -29.097656 14.738281 -29.382812 13.785156 -29.429688 C 13.402344 -29.480469 13.023438 -29.480469 12.59375 -29.097656 C 12.117188 -28.667969 11.6875 -28.332031 11.113281 -28.144531 C 10.734375 -27.953125 10.304688 -27.808594 9.96875 -27.523438 C 9.253906 -27.046875 8.539062 -26.570312 7.824219 -26.042969 C 7.679688 -25.949219 7.585938 -25.664062 7.441406 -25.519531 C 7.25 -25.375 7.011719 -25.328125 6.917969 -25.234375 C 6.582031 -24.945312 6.25 -24.707031 6.011719 -24.375 C 5.820312 -24.089844 5.628906 -23.898438 5.390625 -23.707031 Z M 5.199219 -22.945312 C 5.054688 -23.277344 5.34375 -23.46875 5.390625 -23.660156 C 5.4375 -23.5625 5.53125 -23.515625 5.484375 -23.46875 Z M 3.671875 -1.621094 C 3.578125 -1.667969 3.480469 -1.71875 3.386719 -1.8125 C 3.386719 -1.859375 3.386719 -1.859375 3.433594 -1.90625 L 3.769531 -1.8125 Z M -2.671875 -8.253906 C -2.863281 -8.394531 -2.8125 -8.539062 -2.625 -8.679688 C -2.625 -8.539062 -2.671875 -8.394531 -2.671875 -8.253906 Z M -2.386719 -9.0625 C -2.386719 -9.160156 -2.335938 -9.253906 -2.335938 -9.398438 C -2.289062 -9.398438 -2.242188 -9.398438 -2.242188 -9.347656 C -2.242188 -9.253906 -2.289062 -9.160156 -2.335938 -9.0625 Z M -2.386719 -9.0625 "/></g></g></g><g fill="#1d4e56" fill-opacity="1"><g transform="translate(206.288719, 191.359221)"><g><path d="M -0.574219 -8.492188 C -0.523438 -8.347656 -0.574219 -8.203125 -0.523438 -8.0625 C -0.523438 -6.390625 -0.285156 -4.722656 0.382812 -3.292969 C 1.144531 -1.527344 2.289062 -0.238281 3.910156 0.8125 C 4.53125 1.238281 5.292969 1.527344 6.105469 1.574219 C 6.441406 1.574219 6.773438 1.667969 7.105469 1.71875 C 7.535156 1.859375 8.011719 1.859375 8.539062 1.574219 C 8.824219 1.480469 9.109375 1.429688 9.398438 1.289062 C 10.636719 1 11.6875 0.332031 12.496094 -0.476562 C 13.402344 -1.335938 14.121094 -2.148438 14.929688 -2.957031 C 15.074219 -3.195312 15.359375 -3.480469 15.40625 -3.71875 C 15.980469 -4.675781 16.695312 -5.582031 16.933594 -6.628906 C 17.21875 -7.441406 17.648438 -8.203125 17.792969 -9.015625 C 18.125 -10.253906 18.601562 -11.542969 18.699219 -12.832031 C 18.746094 -13.878906 19.128906 -14.976562 19.269531 -16.074219 C 19.269531 -16.597656 19.320312 -17.125 19.320312 -17.648438 C 19.414062 -17.792969 19.367188 -18.078125 19.460938 -18.222656 C 19.890625 -19.078125 20.175781 -20.128906 20.273438 -21.132812 C 20.320312 -22.417969 20.273438 -23.707031 19.890625 -24.851562 C 19.558594 -26.042969 19.222656 -27.1875 18.554688 -28.046875 C 17.984375 -28.761719 17.410156 -29.335938 16.789062 -29.957031 C 16.410156 -30.335938 15.789062 -30.527344 15.074219 -30.574219 C 13.5 -30.527344 11.828125 -30.242188 10.398438 -29.144531 C 9.875 -28.714844 9.398438 -28.382812 8.871094 -28 C 8.730469 -27.761719 8.492188 -27.617188 8.15625 -27.761719 C 7.585938 -27.808594 7.011719 -27.761719 6.488281 -27.238281 C 5.820312 -26.472656 5.199219 -25.664062 4.816406 -24.804688 L 3.671875 -22.515625 C 3.386719 -22.132812 3.148438 -21.511719 2.957031 -21.035156 L 0.523438 -14.738281 C -0.238281 -12.640625 -0.761719 -10.589844 -0.574219 -8.492188 Z M 3.960938 -14.070312 C 4.914062 -13.878906 5.675781 -13.832031 6.34375 -13.453125 C 6.628906 -13.261719 7.011719 -13.355469 7.394531 -13.355469 C 7.632812 -13.355469 7.917969 -13.5 7.917969 -13.785156 C 8.347656 -14.882812 8.871094 -15.882812 9.347656 -17.027344 C 9.347656 -17.171875 9.398438 -17.265625 9.539062 -17.363281 C 9.828125 -17.984375 10.066406 -18.554688 10.253906 -19.175781 C 10.492188 -19.84375 10.921875 -20.320312 11.257812 -20.894531 C 11.78125 -21.703125 12.210938 -22.515625 12.734375 -23.324219 C 12.925781 -23.613281 13.164062 -23.800781 13.355469 -23.851562 C 13.691406 -24.089844 14.023438 -24.136719 14.308594 -24.28125 C 14.976562 -24.46875 15.503906 -24.28125 15.882812 -23.851562 C 16.410156 -23.324219 16.597656 -22.753906 16.550781 -21.988281 C 16.457031 -20.175781 16.21875 -18.171875 15.933594 -16.410156 C 15.40625 -13.59375 14.5 -10.875 13.164062 -8.394531 C 11.972656 -6.152344 10.304688 -4.292969 8.492188 -2.671875 C 7.964844 -2.195312 7.296875 -1.957031 6.679688 -1.667969 C 6.390625 -1.480469 6.011719 -1.574219 5.722656 -1.765625 C 5.007812 -2.242188 4.769531 -2.910156 4.625 -3.769531 C 4.4375 -5.007812 4.148438 -6.25 3.816406 -7.585938 C 3.769531 -8.347656 3.53125 -9.0625 3.386719 -9.875 C 3.386719 -10.398438 3.53125 -10.875 3.578125 -11.449219 C 3.625 -11.972656 3.671875 -12.59375 3.863281 -13.214844 C 3.863281 -13.453125 3.863281 -13.738281 3.960938 -14.070312 Z M 3.960938 -14.070312 "/></g></g></g><g fill="#1d4e56" fill-opacity="1"><g transform="translate(143.031747, 236.557074)"><g><path d="M 10.894531 0 L 9.3125 -8.160156 L 7.175781 -8.160156 L 5.484375 -2.4375 L 3.78125 -8.160156 L 1.644531 -8.160156 L 0.0585938 0 L 2.039062 0 L 3 -5.628906 L 4.597656 0 L 6.359375 0 L 7.957031 -5.628906 L 8.914062 0 Z M 10.894531 0 "/></g></g></g><g fill="#1d4e56" fill-opacity="1"><g transform="translate(153.98777, 236.557074)"><g><path d="M 4.859375 -2.640625 C 4.859375 -1.945312 4.320312 -1.320312 3.601562 -1.320312 C 2.878906 -1.320312 2.339844 -1.945312 2.339844 -2.640625 C 2.339844 -3.335938 2.878906 -3.960938 3.601562 -3.960938 C 4.320312 -3.960938 4.859375 -3.335938 4.859375 -2.640625 Z M 6.660156 -5.28125 L 4.859375 -5.28125 L 4.859375 -4.644531 C 4.390625 -5.21875 3.71875 -5.410156 3.046875 -5.410156 C 1.546875 -5.410156 0.421875 -4.105469 0.421875 -2.640625 C 0.421875 -1.175781 1.546875 0.121094 3.046875 0.121094 C 3.71875 0.121094 4.5 -0.0976562 4.859375 -0.636719 L 4.859375 0 L 6.660156 0 Z M 6.660156 -5.28125 "/></g></g></g><g fill="#1d4e56" fill-opacity="1"><g transform="translate(161.36779, 236.557074)"><g><path d="M 2.519531 -2.339844 L 4.378906 0 L 6.683594 0 L 4.164062 -2.773438 L 6.445312 -5.292969 L 4.210938 -5.292969 L 2.519531 -3.191406 L 2.519531 -9 L 0.71875 -9 L 0.71875 0 L 2.519531 0 Z M 2.519531 -2.339844 "/></g></g></g><g fill="#1d4e56" fill-opacity="1"><g transform="translate(167.691806, 236.557074)"><g><path d="M 2.351562 -3.277344 C 2.351562 -3.277344 2.410156 -4.261719 3.539062 -4.261719 C 4.632812 -4.261719 4.714844 -3.277344 4.714844 -3.277344 Z M 6.445312 -2.761719 C 6.445312 -4.453125 5.113281 -5.410156 3.503906 -5.410156 C 1.726562 -5.410156 0.421875 -4.296875 0.421875 -2.640625 C 0.421875 -0.960938 1.679688 0.121094 3.503906 0.121094 C 4.90625 0.121094 6.035156 -0.574219 6.347656 -1.96875 L 4.511719 -1.96875 C 4.5 -1.585938 4.105469 -1.164062 3.46875 -1.164062 C 2.761719 -1.164062 2.328125 -1.8125 2.328125 -2.425781 L 6.433594 -2.425781 C 6.433594 -2.53125 6.445312 -2.652344 6.445312 -2.761719 Z M 6.445312 -2.761719 "/></g></g></g><g fill="#1d4e56" fill-opacity="1"><g transform="translate(174.555823, 236.557074)"><g><path d="M 0.601562 -2.28125 C 0.601562 -0.851562 1.175781 0.121094 2.59375 0.121094 C 3.289062 0.121094 3.851562 -0.191406 4.210938 -0.648438 L 4.210938 0 L 6.011719 0 L 6.011719 -5.292969 L 4.210938 -5.292969 L 4.210938 -2.640625 C 4.210938 -1.933594 3.769531 -1.320312 3.203125 -1.320312 C 2.640625 -1.320312 2.398438 -1.667969 2.398438 -2.28125 L 2.398438 -5.292969 L 0.601562 -5.292969 Z M 0.601562 -2.28125 "/></g></g></g><g fill="#1d4e56" fill-opacity="1"><g transform="translate(181.287833, 236.557074)"><g><path d="M 2.519531 -2.640625 C 2.519531 -3.335938 3.058594 -3.960938 3.78125 -3.960938 C 4.5 -3.960938 5.039062 -3.335938 5.039062 -2.640625 C 5.039062 -1.945312 4.5 -1.320312 3.78125 -1.320312 C 3.058594 -1.320312 2.519531 -1.945312 2.519531 -2.640625 Z M 2.519531 3 L 2.519531 -0.636719 C 2.878906 -0.0976562 3.648438 0.121094 4.332031 0.121094 C 5.832031 0.121094 6.960938 -1.175781 6.960938 -2.640625 C 6.960938 -4.105469 5.832031 -5.410156 4.332031 -5.410156 C 3.648438 -5.410156 2.988281 -5.21875 2.519531 -4.644531 L 2.519531 -5.292969 L 0.71875 -5.292969 L 0.71875 3 Z M 2.519531 3 "/></g></g></g><g fill="#1d4e56" fill-opacity="1"><g transform="translate(188.667853, 236.557074)"><g/></g></g><g fill="#1d4e56" fill-opacity="1"><g transform="translate(191.667864, 236.557074)"><g><path d="M 4.296875 -2.050781 C 3.972656 -1.738281 3.492188 -1.34375 3.011719 -1.34375 C 2.449219 -1.34375 1.945312 -1.859375 1.945312 -2.410156 C 1.945312 -2.914062 2.628906 -3.382812 3 -3.636719 Z M 3.421875 -6.886719 C 3.742188 -6.886719 3.996094 -6.707031 3.996094 -6.347656 C 3.996094 -5.976562 3.589844 -5.722656 3.324219 -5.542969 C 3.132812 -5.785156 2.855469 -6.023438 2.855469 -6.371094 C 2.855469 -6.695312 3.144531 -6.886719 3.421875 -6.886719 Z M 7.96875 0.0117188 L 6.335938 -2.003906 C 6.660156 -2.363281 6.972656 -2.722656 7.246094 -3.121094 L 6.203125 -4.1875 C 5.941406 -3.839844 5.664062 -3.503906 5.375 -3.179688 L 4.261719 -4.535156 C 4.882812 -5.003906 5.472656 -5.53125 5.472656 -6.382812 C 5.472656 -7.546875 4.546875 -8.28125 3.433594 -8.28125 C 2.257812 -8.28125 1.378906 -7.5 1.378906 -6.300781 C 1.378906 -5.710938 1.667969 -5.21875 2.050781 -4.789062 C 1.90625 -4.679688 1.765625 -4.597656 1.621094 -4.488281 C 0.886719 -3.972656 0.421875 -3.3125 0.421875 -2.386719 C 0.421875 -0.898438 1.621094 0.121094 3.070312 0.121094 C 3.925781 0.121094 4.667969 -0.3125 5.269531 -0.886719 L 5.988281 0.0117188 Z M 7.96875 0.0117188 "/></g></g></g><g fill="#1d4e56" fill-opacity="1"><g transform="translate(199.695882, 236.557074)"><g/></g></g><g fill="#1d4e56" fill-opacity="1"><g transform="translate(202.695894, 236.557074)"><g><path d="M 10.894531 0 L 9.3125 -8.160156 L 7.175781 -8.160156 L 5.484375 -2.4375 L 3.78125 -8.160156 L 1.644531 -8.160156 L 0.0585938 0 L 2.039062 0 L 3 -5.628906 L 4.597656 0 L 6.359375 0 L 7.957031 -5.628906 L 8.914062 0 Z M 10.894531 0 "/></g></g></g><g fill="#1d4e56" fill-opacity="1"><g transform="translate(213.651917, 236.557074)"><g><path d="M 3.445312 -1.246094 C 2.472656 -1.246094 2.207031 -1.957031 2.207031 -2.628906 C 2.207031 -3.289062 2.496094 -3.996094 3.445312 -3.996094 C 4.378906 -3.996094 4.667969 -3.289062 4.667969 -2.628906 C 4.667969 -1.957031 4.402344 -1.246094 3.445312 -1.246094 Z M 3.445312 -5.398438 C 1.789062 -5.398438 0.421875 -4.296875 0.421875 -2.640625 C 0.421875 -0.949219 1.753906 0.109375 3.445312 0.109375 C 5.125 0.109375 6.457031 -0.949219 6.457031 -2.640625 C 6.457031 -4.296875 5.089844 -5.398438 3.445312 -5.398438 Z M 3.445312 -5.398438 "/></g></g></g><g fill="#1d4e56" fill-opacity="1"><g transform="translate(220.527927, 236.557074)"><g><path d="M 3.707031 -3.960938 C 3.984375 -3.960938 4.246094 -3.875 4.429688 -3.660156 L 4.453125 -3.660156 L 4.453125 -5.292969 C 4.308594 -5.363281 4.066406 -5.410156 3.910156 -5.410156 C 3.253906 -5.410156 2.796875 -5.039062 2.519531 -4.644531 L 2.519531 -5.292969 L 0.71875 -5.292969 L 0.71875 0 L 2.519531 0 L 2.519531 -2.640625 C 2.519531 -3.277344 3.035156 -3.960938 3.707031 -3.960938 Z M 3.707031 -3.960938 "/></g></g></g><g fill="#1d4e56" fill-opacity="1"><g transform="translate(225.099933, 236.557074)"><g><path d="M 2.351562 -3.277344 C 2.351562 -3.277344 2.410156 -4.261719 3.539062 -4.261719 C 4.632812 -4.261719 4.714844 -3.277344 4.714844 -3.277344 Z M 6.445312 -2.761719 C 6.445312 -4.453125 5.113281 -5.410156 3.503906 -5.410156 C 1.726562 -5.410156 0.421875 -4.296875 0.421875 -2.640625 C 0.421875 -0.960938 1.679688 0.121094 3.503906 0.121094 C 4.90625 0.121094 6.035156 -0.574219 6.347656 -1.96875 L 4.511719 -1.96875 C 4.5 -1.585938 4.105469 -1.164062 3.46875 -1.164062 C 2.761719 -1.164062 2.328125 -1.8125 2.328125 -2.425781 L 6.433594 -2.425781 C 6.433594 -2.53125 6.445312 -2.652344 6.445312 -2.761719 Z M 6.445312 -2.761719 "/></g></g></g></svg>